<svg width="64" height="64" viewBox="0 0 64 64" fill="none" xmlns="http://www.w3.org/2000/svg">
<path d="M52.3978 49.8131L58.7123 23.6164C58.9777 22.515 58.2763 21.4132 57.166 21.1878L15.8867 12.8043C14.8111 12.5859 13.7605 13.275 13.5323 14.3485L12.1247 20.9706" stroke="#00AF7E" stroke-width="1.5"/>
<path d="M5.75 22C5.75 21.3096 6.30964 20.75 7 20.75H51C51.6904 20.75 52.25 21.3096 52.25 22V50C52.25 50.6904 51.6904 51.25 51 51.25H7C6.30964 51.25 5.75 50.6904 5.75 50V22Z" stroke="#00AF7E" stroke-width="1.5"/>
<path d="M6 30L52 30" stroke="#00AF7E" stroke-width="5"/>
<path d="M10 44.75H30.004" stroke="#00AF7E" stroke-width="1.5"/>
<path d="M10 40.75H22" stroke="#00AF7E" stroke-width="1.5"/>
</svg>
