<svg width="64" height="64" viewBox="0 0 64 64" fill="none" xmlns="http://www.w3.org/2000/svg">
<circle cx="17.5" cy="17.5" r="11.75" stroke="#00AF7E" stroke-width="1.5"/>
<path d="M21.4267 21.6027L21.4267 21.6027L21.4274 21.6013C21.6068 21.2107 21.6973 20.8075 21.6973 20.393C21.6973 19.5032 21.4078 18.7778 20.8202 18.2329C20.2412 17.696 19.2889 17.2509 17.9849 16.887L17.9839 16.8867C17.3957 16.7272 16.9166 16.5639 16.5444 16.3974C16.181 16.2304 15.9037 16.0619 15.7071 15.8937C15.5221 15.7269 15.3977 15.5514 15.3273 15.3681C15.2631 15.1744 15.2305 14.9654 15.2305 14.7402C15.2305 14.2633 15.4159 13.8672 15.7959 13.5428L15.7959 13.5428L15.7975 13.5414C16.1728 13.212 16.725 13.0361 17.4773 13.0361C17.7846 13.0361 18.0816 13.0792 18.3688 13.1654L18.3688 13.1655L18.3744 13.167C18.6666 13.2424 18.9239 13.369 19.1479 13.5463L19.1478 13.5465L19.1533 13.5505C19.385 13.7173 19.5821 13.9413 19.7436 14.2262L19.7436 14.2263L19.7455 14.2295C19.9134 14.5094 20.0236 14.85 20.0719 15.2554L20.0956 15.4545L20.2799 15.3755L21.3351 14.9233L21.4437 14.8768L21.4239 14.7603C21.3308 14.2122 21.1591 13.74 20.9049 13.3479C20.6547 12.9519 20.3558 12.6261 20.0075 12.3728C19.6603 12.1203 19.2667 11.9369 18.8284 11.8219C18.393 11.6976 17.9425 11.6356 17.4773 11.6356C16.9213 11.6356 16.408 11.7128 15.939 11.869C15.4711 12.0147 15.0667 12.2292 14.7286 12.5143C14.3906 12.7891 14.1259 13.1227 13.9356 13.5139C13.7441 13.9075 13.6492 14.3372 13.6492 14.8005C13.6492 15.6799 13.9335 16.3955 14.5113 16.9305L14.5124 16.9315C15.0808 17.4472 16.0219 17.8871 17.3148 18.2608C18.4491 18.5921 19.1833 18.9264 19.5478 19.2535L19.5478 19.2535L19.5492 19.2547C19.9195 19.5787 20.101 19.9751 20.101 20.4533C20.101 20.9464 19.8989 21.3452 19.4825 21.6599C19.0757 21.965 18.489 22.1273 17.7034 22.1273C16.9263 22.1273 16.2697 21.9287 15.7258 21.5375C15.1871 21.15 14.8662 20.6186 14.7615 19.9332L14.7351 19.7607L14.5686 19.8127L13.4078 20.1744L13.2794 20.2145L13.3053 20.3465C13.4092 20.8763 13.597 21.3474 13.8703 21.7575L13.8703 21.7575L13.8718 21.7597C14.1531 22.166 14.4877 22.5011 14.8759 22.7634C15.2619 23.0242 15.6937 23.2216 16.1703 23.3562L16.1703 23.3563L16.1732 23.357C16.648 23.4809 17.133 23.5428 17.628 23.5428C18.2736 23.5428 18.8525 23.4608 19.3629 23.2942L19.3629 23.2942L19.3655 23.2933C19.8709 23.118 20.2948 22.889 20.6332 22.6037C20.9804 22.3195 21.2458 21.9857 21.4267 21.6027Z" fill="#00AF7E" stroke="#00AF7E" stroke-width="0.3"/>
<path d="M17.5301 10.3572V24.6429" stroke="#00AF7E" stroke-width="1.6"/>
<circle cx="40.5" cy="36.5" r="11.75" stroke="#00AF7E" stroke-width="1.5"/>
<path fill-rule="evenodd" clip-rule="evenodd" d="M38.5106 31.7373H37.1407V33.1873H37.7251V40.0671H37.1407V41.5171H38.5106V42.6321H39.9673V41.5142H40.8122L40.8474 41.5141V42.6321H42.3041V41.3279C42.712 41.211 43.0694 41.0376 43.3717 40.8029L43.3738 40.8012C44.0167 40.2927 44.3226 39.5533 44.3226 38.6336C44.3226 37.9879 44.1605 37.4251 43.8183 36.9648C43.6015 36.6612 43.3157 36.4237 42.9693 36.2479C43.1967 36.0857 43.3914 35.8907 43.5511 35.6623C43.8425 35.2457 43.9816 34.7512 43.9816 34.194C43.9816 33.3844 43.6995 32.7398 43.1008 32.3214C42.8695 32.1599 42.6031 32.0341 42.3041 31.9417V30.3677H40.8474V31.7418C40.824 31.7416 40.8005 31.7415 40.7769 31.7415H39.9673V30.3677H38.5106V31.7373ZM37.7251 40.3671V40.3672H37.4408V41.2171H37.4407V40.3671H37.7251ZM37.7251 32.0373V32.0374H37.4408V32.8873H37.4407V32.0373H37.7251ZM41.2936 32.0611H41.293C41.9787 32.1157 42.524 32.2845 42.9289 32.5674C43.4306 32.918 43.6815 33.4602 43.6815 34.194C43.6815 34.6995 43.5561 35.1317 43.3052 35.4904C43.2097 35.6271 43.0993 35.7507 42.9742 35.8613C43.0993 35.7507 43.2097 35.6271 43.3053 35.4904C43.5562 35.1316 43.6816 34.6995 43.6816 34.194C43.6816 33.4602 43.4307 32.918 42.929 32.5674C42.5242 32.2845 41.9791 32.1158 41.2936 32.0611ZM40.8474 32.0418V32.0418C40.824 32.0416 40.8005 32.0415 40.7769 32.0415H39.9673V32.0415H40.7768C40.8005 32.0415 40.824 32.0416 40.8474 32.0418ZM42.6628 36.4365C43.0534 36.6001 43.3578 36.8351 43.5758 37.1415C43.8737 37.541 44.0226 38.0384 44.0226 38.6336C44.0226 39.4815 43.7443 40.1257 43.1877 40.5659L43.1876 40.566C43.7442 40.1257 44.0226 39.4816 44.0226 38.6336C44.0226 38.0384 43.8736 37.541 43.5757 37.1415C43.2856 36.7338 42.8426 36.4526 42.2468 36.2976L42.2469 36.2976C42.395 36.3361 42.5336 36.3824 42.6628 36.4365ZM40.871 33.1976C41.4405 33.1976 41.8083 33.318 42.0293 33.5055L42.0322 33.5079C42.2509 33.6887 42.382 33.9715 42.382 34.4141C42.382 34.8173 42.2581 35.1192 42.0261 35.3486C41.7949 35.5693 41.4792 35.6918 41.0474 35.6918H39.2776V33.1976H40.871ZM41.9933 35.751C41.7331 35.9116 41.4178 35.9918 41.0474 35.9918H38.9776V32.8976H38.9776V35.9919H41.0473C41.4178 35.9919 41.7331 35.9116 41.9933 35.751ZM41.0121 37.0256C41.6168 37.0256 42.0311 37.1732 42.3023 37.4232L42.3076 37.428C42.5799 37.6672 42.7348 38.0239 42.7348 38.548C42.7348 39.1282 42.5723 39.4844 42.3093 39.6934C42.0225 39.9131 41.57 40.0458 40.9063 40.0458H39.2776V37.0256H41.0121ZM38.9776 36.7257V40.3458H40.9063C41.5168 40.3458 41.9983 40.2397 42.3507 40.0274C41.9983 40.2397 41.5168 40.3459 40.9062 40.3459H38.9776V36.7257H38.9776Z" fill="#00AF7E"/>
<circle cx="13.5" cy="46.5" r="11.75" stroke="#00AF7E" stroke-width="1.5"/>
<path d="M8.59637 47.2244H8.44637V47.3744V48.1281V48.2781H8.59637H9.98844C10.1865 49.6251 10.6266 50.6605 11.3237 51.3653C12.0462 52.0957 13.0275 52.4537 14.2492 52.4537C15.3701 52.4537 16.2636 52.0886 16.9098 51.347C17.5502 50.6122 17.8758 49.6717 17.8964 48.5378L17.8992 48.3851H17.7464H16.5254H16.3754V48.5351C16.3754 49.3482 16.1942 49.9703 15.8489 50.4183L15.8486 50.4186C15.5233 50.8432 15.0067 51.0683 14.2643 51.0683C13.4741 51.0683 12.8648 50.8229 12.4181 50.3435C11.993 49.8873 11.7018 49.2045 11.5581 48.2781H15.2441H15.3941V48.1281V47.3744V47.2244H15.2441H11.4627C11.4508 47.0465 11.4447 46.8057 11.4447 46.5001C11.4447 46.2201 11.4475 45.9991 11.4531 45.8361H15.2441H15.3941V45.6861V44.9324V44.7824H15.2441H11.5399C11.6676 43.8364 11.9257 43.1395 12.3006 42.6752C12.6985 42.1849 13.2794 41.9319 14.0683 41.9319C14.8291 41.9319 15.3911 42.1663 15.7784 42.6181L15.7784 42.6181L15.7794 42.6193C16.1717 43.0676 16.3754 43.6773 16.3754 44.4651V44.6151H16.5254H17.7464H17.8992L17.8964 44.4624C17.8757 43.3247 17.5176 42.3824 16.8147 41.648C16.1094 40.9112 15.1839 40.5465 14.0532 40.5465C12.8911 40.5465 11.9537 40.9323 11.2581 41.7122L11.2573 41.713C10.6006 42.4607 10.1813 43.4882 9.98867 44.7824H8.59637H8.44637V44.9324V45.6861V45.8361H8.59637H9.88487C9.87058 46.106 9.86335 46.3276 9.86335 46.5001C9.86335 46.676 9.87087 46.9177 9.88572 47.2244H8.59637Z" fill="#00AF7E" stroke="#00AF7E" stroke-width="0.3"/>
</svg>
