<svg width="64" height="64" viewBox="0 0 64 64" fill="none" xmlns="http://www.w3.org/2000/svg">
<path d="M8.75 31.75V31H8V31.75H8.75ZM8.75 52.2313H8V52.9813H8.75V52.2313ZM43.8 46.25V47H43.9776L44.1363 46.9204L43.8 46.25ZM42.4868 55.25V56H42.7019L42.8843 55.886L42.4868 55.25ZM26.8329 55.25L26.5078 55.9258L26.6619 56H26.8329V55.25ZM14.7776 49.45H14.0276V49.9215L14.4525 50.1258L14.7776 49.45ZM32.191 39.2735L31.8241 39.9277L32.191 39.2735ZM26.2988 35.9687L25.9319 36.6229L26.2988 35.9687ZM54.9319 47.4711L55.3294 48.1071L54.9319 47.4711ZM8 31.75V52.2313H9.5V31.75H8ZM8.75 52.9813H11.9964V51.4813H8.75V52.9813ZM12.2776 31H8.75V32.5H12.2776V31ZM14.7776 35H19.7208V33.5H14.7776V35ZM25.9319 36.6229L31.8241 39.9277L32.5579 38.6194L26.6657 35.3146L25.9319 36.6229ZM34.0145 40.5H39.2368V39H34.0145V40.5ZM39.2368 45.5H34.6599V47H39.2368V45.5ZM34.6599 45.5H27V47H34.6599V45.5ZM34.6599 47H43.8V45.5H34.6599V47ZM44.1363 46.9204L52.2861 42.8325L51.6136 41.4917L43.4637 45.5796L44.1363 46.9204ZM54.5343 46.8351L42.0893 54.614L42.8843 55.886L55.3294 48.1071L54.5343 46.8351ZM42.4868 54.5H26.8329V56H42.4868V54.5ZM15.5276 49.45V34.25H14.0276V49.45H15.5276ZM27.1581 54.5742L15.1028 48.7742L14.4525 50.1258L26.5078 55.9258L27.1581 54.5742ZM52.2861 42.8325C53.295 42.3265 54.522 42.628 55.1814 43.5441L56.3988 42.6678C55.309 41.1538 53.281 40.6554 51.6136 41.4917L52.2861 42.8325ZM41.7368 43C41.7368 44.3807 40.6175 45.5 39.2368 45.5V47C41.446 47 43.2368 45.2091 43.2368 43H41.7368ZM31.8241 39.9277C32.4932 40.3029 33.2474 40.5 34.0145 40.5V39C33.5044 39 33.0028 38.8689 32.5579 38.6194L31.8241 39.9277ZM19.7208 35C21.896 35 24.0347 35.5588 25.9319 36.6229L26.6657 35.3146C24.5444 34.1248 22.153 33.5 19.7208 33.5V35ZM12.2776 32.5C13.2441 32.5 14.0276 33.2835 14.0276 34.25H15.5276C15.5276 32.4551 14.0726 31 12.2776 31V32.5ZM39.2368 40.5C40.6175 40.5 41.7368 41.6193 41.7368 43H43.2368C43.2368 40.7909 41.446 39 39.2368 39V40.5ZM55.1814 43.5441C55.9573 44.622 55.6605 46.1312 54.5343 46.8351L55.3294 48.1071C57.1907 46.9437 57.6811 44.4492 56.3988 42.6678L55.1814 43.5441ZM11.9964 52.9813C13.9466 52.9813 15.5276 51.4003 15.5276 49.45H14.0276C14.0276 50.5718 13.1182 51.4813 11.9964 51.4813V52.9813Z" fill="#00AF7E"/>
<circle cx="25.5" cy="16.5" r="9.75" stroke="#00AF7E" stroke-width="1.5"/>
<path d="M28.4862 19.7566L28.4862 19.7566L28.4869 19.7552C28.6305 19.4426 28.7031 19.1195 28.7031 18.7872C28.7031 18.0764 28.4715 17.4943 27.9999 17.0569C27.5367 16.6274 26.7782 16.274 25.7461 15.9859L25.745 15.9857C25.2812 15.8599 24.9042 15.7313 24.6121 15.6007C24.3267 15.4695 24.1105 15.3378 23.9582 15.2076C23.8153 15.0787 23.7205 14.9443 23.6669 14.8052C23.6174 14.6558 23.5922 14.4942 23.5922 14.3196C23.5922 13.9523 23.7344 13.6478 24.028 13.3972L24.028 13.3972L24.0296 13.3958C24.3185 13.1422 24.7464 13.0042 25.3364 13.0042C25.5763 13.0042 25.808 13.0379 26.032 13.1051L26.0319 13.1052L26.0376 13.1067C26.2645 13.1652 26.4638 13.2634 26.6372 13.4007L26.6371 13.4008L26.6427 13.4048C26.8217 13.5337 26.9746 13.7072 27.1002 13.9289L27.1002 13.9289L27.1021 13.9321C27.2321 14.1488 27.318 14.4136 27.3558 14.7304L27.3795 14.9296L27.5638 14.8506L28.3978 14.4932L28.5063 14.4466L28.4865 14.3302C28.4124 13.8938 28.2755 13.5164 28.0719 13.2022C27.8722 12.8863 27.6334 12.6258 27.3547 12.4231C27.0769 12.2211 26.7624 12.0746 26.4125 11.9828C26.0656 11.8838 25.7068 11.8345 25.3364 11.8345C24.8942 11.8345 24.4853 11.8959 24.111 12.0204C23.738 12.1367 23.4147 12.308 23.144 12.5361C22.8734 12.7562 22.6614 13.0234 22.5091 13.3366C22.3555 13.6523 22.2795 13.9966 22.2795 14.3672C22.2795 15.0697 22.5069 15.6441 22.971 16.0737L22.9721 16.0747C23.4267 16.4872 24.1761 16.8365 25.1993 17.1323C26.0955 17.394 26.6695 17.6566 26.9518 17.91L26.9518 17.91L26.9532 17.9112C27.2392 18.1614 27.3785 18.4661 27.3785 18.8348C27.3785 19.2142 27.2239 19.5202 26.9022 19.7633C26.5882 19.9988 26.1321 20.1263 25.5151 20.1263C24.9066 20.1263 24.3943 19.9709 23.9706 19.6661C23.5519 19.365 23.3027 18.9527 23.2211 18.419L23.1948 18.2465L23.0282 18.2985L22.1109 18.5844L21.9824 18.6244L22.0083 18.7564C22.0911 19.1788 22.241 19.5551 22.4596 19.883L22.4596 19.883L22.4611 19.8852C22.6854 20.2093 22.9527 20.477 23.2629 20.6866C23.5709 20.8947 23.9153 21.052 24.2949 21.1593L24.2949 21.1594L24.2978 21.1601C24.6757 21.2587 25.0617 21.308 25.4556 21.308C25.9684 21.308 26.4293 21.2429 26.8365 21.1099L26.8365 21.1099L26.8391 21.109C27.2412 20.9695 27.5798 20.7869 27.8508 20.5585C28.1284 20.3311 28.3412 20.0638 28.4862 19.7566Z" fill="#00AF7E" stroke="#00AF7E" stroke-width="0.3"/>
<path d="M25.3782 10.856V22.1464" stroke="#00AF7E" stroke-width="1.3"/>
<circle cx="45.5" cy="28.5" r="9.75" stroke="#00AF7E" stroke-width="1.5"/>
<path fill-rule="evenodd" clip-rule="evenodd" d="M43.4197 23.6101H42.0498V25.0601H42.6342V31.9399H42.0498V33.3899H43.4197V34.5049H44.8764V33.387H45.7212L45.7565 33.3869V34.5049H47.2132V33.2007C47.6211 33.0838 47.9784 32.9104 48.2807 32.6757L48.2828 32.674C48.9257 32.1655 49.2317 31.4261 49.2317 30.5064C49.2317 29.8607 49.0696 29.2979 48.7273 28.8376C48.5106 28.534 48.2248 28.2965 47.8783 28.1207C48.1057 27.9585 48.3005 27.7635 48.4602 27.5351C48.7515 27.1185 48.8907 26.624 48.8907 26.0668C48.8907 25.2572 48.6085 24.6126 48.0099 24.1942C47.7786 24.0327 47.5122 23.9069 47.2132 23.8145V22.2405H45.7565V23.6146C45.7331 23.6144 45.7096 23.6143 45.686 23.6143H44.8764V22.2405H43.4197V23.6101ZM42.6342 32.2399V32.24H42.3499V33.0899H42.3498V32.2399H42.6342ZM42.6342 23.9101V23.9102H42.3499V24.7601H42.3498V23.9101H42.6342ZM46.2027 23.9339H46.202C46.8877 23.9885 47.433 24.1573 47.8379 24.4402C48.3397 24.7908 48.5906 25.333 48.5906 26.0668C48.5906 26.5724 48.4651 27.0045 48.2143 27.3632C48.1187 27.4999 48.0084 27.6235 47.8833 27.7341C48.0084 27.6235 48.1188 27.4999 48.2143 27.3632C48.4652 27.0044 48.5907 26.5723 48.5907 26.0668C48.5907 25.333 48.3398 24.7908 47.838 24.4402C47.4332 24.1573 46.8881 23.9886 46.2027 23.9339ZM45.7565 23.9146V23.9146C45.7331 23.9144 45.7096 23.9143 45.686 23.9143H44.8764V23.9143H45.6859C45.7096 23.9143 45.7331 23.9144 45.7565 23.9146ZM47.5718 28.3093C47.9625 28.4729 48.2668 28.7079 48.4848 29.0143C48.7827 29.4138 48.9317 29.9112 48.9317 30.5064C48.9317 31.3543 48.6534 31.9985 48.0967 32.4388L48.0967 32.4388C48.6533 31.9985 48.9316 31.3544 48.9316 30.5064C48.9316 29.9112 48.7827 29.4138 48.4847 29.0143C48.1947 28.6067 47.7517 28.3254 47.1559 28.1704L47.156 28.1704C47.304 28.2089 47.4427 28.2552 47.5718 28.3093ZM45.78 25.0704C46.3496 25.0704 46.7174 25.1908 46.9383 25.3783L46.9413 25.3807C47.1599 25.5615 47.2911 25.8443 47.2911 26.2869C47.2911 26.6901 47.1672 26.992 46.9351 27.2214C46.7039 27.4421 46.3883 27.5646 45.9564 27.5646H44.1867V25.0704H45.78ZM46.9024 27.6238C46.6422 27.7844 46.3269 27.8646 45.9564 27.8646H43.8867V24.7704H43.8866V27.8647H45.9564C46.3268 27.8647 46.6422 27.7844 46.9024 27.6238ZM45.9212 28.8984C46.5259 28.8984 46.9401 29.046 47.2113 29.296L47.2167 29.3008C47.489 29.54 47.6439 29.8967 47.6439 30.4208C47.6439 31.001 47.4813 31.3572 47.2184 31.5662C46.9315 31.7859 46.479 31.9186 45.8153 31.9186H44.1867V28.8984H45.9212ZM43.8867 28.5985V32.2186H45.8153C46.4259 32.2186 46.9073 32.1125 47.2598 31.9002C46.9073 32.1125 46.4258 32.2187 45.8152 32.2187H43.8866V28.5985H43.8867Z" fill="#00AF7E"/>
</svg>
