<svg width="64" height="64" viewBox="0 0 64 64" fill="none" xmlns="http://www.w3.org/2000/svg">
<path d="M11.75 16C11.75 13.1005 14.1005 10.75 17 10.75H47.6667C50.5662 10.75 52.9167 13.1005 52.9167 16V39.5556C52.9167 42.4551 50.5662 44.8056 47.6667 44.8056H21.5517C21.1772 44.8056 20.8126 44.9257 20.5115 45.1483L12.1486 51.3295C11.9836 51.4515 11.75 51.3337 11.75 51.1285V16Z" stroke="#00AF7E" stroke-width="1.5" stroke-linecap="round" stroke-linejoin="round"/>
<path d="M25.5735 31.5996H21.1335C24.9202 28.5596 25.3868 27.5596 25.3868 26.0929C25.3868 24.4396 23.9868 23.1996 22.0802 23.1996C21.0268 23.1996 20.1602 23.5463 19.5068 24.2529C18.8535 24.9596 18.5202 25.8929 18.5068 27.0663H20.4268C20.4402 25.6396 20.9468 24.8529 21.9735 24.8529C22.8268 24.8529 23.4135 25.3996 23.4135 26.3996C23.4135 27.8796 21.7202 29.0129 18.6002 31.7329V33.3329H25.5735V31.5996Z" fill="#00AF7E"/>
<path d="M34.5248 29.5329H32.6314V23.3329H30.8314L26.5648 29.5329V31.1196H30.8314V33.3329H32.6314V31.1196H34.5248V29.5329ZM28.0714 29.5329L30.8314 25.5463V29.5329H28.0714Z" fill="#00AF7E"/>
<path d="M36.0713 33.3329L39.5246 23.3329H38.178L34.7246 33.3329H36.0713Z" fill="#00AF7E"/>
<path d="M39.7027 23.3329V25.0129H44.5027C43.5827 26.1463 42.9027 27.1863 42.4627 28.1063C42.0227 29.0263 41.716 29.8129 41.5293 30.4796C41.3427 31.1463 41.2227 31.6929 41.156 32.1196C41.1027 32.5463 40.9827 32.8396 40.796 33.0129V33.3329H43.2093C43.3827 29.3063 44.316 27.2263 46.276 24.9463V23.3329H39.7027Z" fill="#00AF7E"/>
</svg>
